<?xml version="1.0" standalone="no"?>
<!DOCTYPE svg PUBLIC "-//W3C//DTD SVG 20010904//EN"
 "http://www.w3.org/TR/2001/REC-SVG-20010904/DTD/svg10.dtd">
<svg version="1.0" xmlns="http://www.w3.org/2000/svg"
 width="382.000000pt" height="382.000000pt" viewBox="0 0 382.000000 382.000000"
 preserveAspectRatio="xMidYMid meet">
<metadata>
Created by potrace 1.11, written by Peter Selinger 2001-2013
</metadata>
<g transform="translate(0.000000,382.000000) scale(0.100000,-0.100000)"
fill="#000000" stroke="none">
<path d="M1829 3580 c-9 -5 -21 -22 -28 -37 -17 -43 -861 -2914 -867 -2949
-34 -210 1021 -315 1636 -163 159 40 240 89 240 147 0 42 -858 2952 -879 2982
-19 27 -73 38 -102 20z m491 -2875 c220 -30 430 -94 430 -130 0 -31 -170 -90
-345 -119 -261 -44 -762 -47 -1020 -7 -201 31 -366 82 -390 121 -3 5 9 19 27
30 78 48 299 98 523 119 150 14 637 5 775 -14z"/>
</g>
</svg>
